<?xml version="1.0" standalone="no"?>
<!DOCTYPE svg PUBLIC "-//W3C//DTD SVG 20010904//EN"
 "http://www.w3.org/TR/2001/REC-SVG-20010904/DTD/svg10.dtd">
<svg version="1.0" xmlns="http://www.w3.org/2000/svg"
 width="500.000000pt" height="500.000000pt" viewBox="0 0 500.000000 500.000000"
 preserveAspectRatio="xMidYMid meet">
<metadata>
Created by potrace 1.14, written by Peter Selinger 2001-2017
</metadata>
<g transform="translate(0.000000,500.000000) scale(0.100000,-0.100000)"
fill="#000000" stroke="none">
<path d="M2355 4269 c-38 -4 -96 -14 -127 -22 -32 -8 -58 -13 -58 -10 0 3 -6
1 -12 -4 -7 -6 -38 -18 -68 -28 -139 -45 -362 -186 -477 -302 -37 -37 -45 -39
-63 -18 -18 21 -74 19 -121 -5 -70 -36 -131 -148 -126 -231 l2 -36 -50 1 c-61
0 -113 -28 -140 -77 -25 -47 -17 -130 17 -181 l26 -38 -29 -61 c-15 -34 -31
-77 -34 -95 -9 -53 -24 -68 -117 -112 -48 -24 -88 -46 -88 -50 0 -8 11 -11
120 -31 30 -6 65 -13 77 -15 26 -5 25 -15 -11 -119 -13 -38 -22 -73 -19 -77 8
-15 38 -8 101 22 34 16 62 28 62 27 0 -1 -6 -24 -13 -52 -27 -108 0 -193 93
-284 36 -36 64 -69 62 -73 -1 -5 -5 -25 -8 -46 -10 -65 -78 -261 -119 -343
-27 -54 -87 -129 -164 -207 -39 -39 -82 -94 -95 -121 -23 -45 -25 -57 -21
-152 3 -57 5 -111 6 -120 0 -8 -14 -39 -33 -69 -36 -58 -39 -92 -23 -230 7
-60 5 -71 -20 -119 -33 -67 -29 -72 80 -96 44 -9 98 -21 120 -26 22 -5 95 -11
162 -14 73 -3 135 -11 156 -20 20 -8 65 -17 102 -20 36 -3 87 -12 113 -20 80
-26 185 -41 233 -34 25 4 80 21 123 38 114 46 140 47 171 8 22 -29 25 -30 25
-11 0 25 18 43 40 39 81 -13 124 -14 158 -2 41 14 73 14 167 -2 33 -6 78 -13
100 -17 22 -3 56 -13 75 -21 48 -20 85 -24 233 -27 82 -1 131 2 135 9 17 26
73 38 202 42 74 2 153 9 175 15 22 6 99 12 170 13 146 2 218 10 288 30 26 8
54 12 62 9 18 -7 30 62 30 176 0 77 -3 92 -36 160 -31 62 -36 84 -33 125 4 56
7 207 4 215 -1 3 -3 18 -5 33 -3 26 -59 135 -74 147 -4 3 -18 21 -31 40 -21
30 -53 67 -105 124 -37 40 -77 122 -90 186 -2 8 -8 33 -13 55 -13 46 -25 129
-24 165 0 89 3 100 31 132 62 71 71 114 56 261 -5 46 -4 67 4 67 6 0 45 -18
86 -39 41 -22 75 -35 75 -30 0 5 -6 25 -14 43 -8 19 -22 70 -32 113 -9 43 -28
95 -42 115 -22 35 -25 68 -4 68 5 0 18 -17 29 -38 55 -97 96 -109 249 -68
l113 30 -47 31 c-55 37 -86 49 -167 65 -33 6 -84 24 -112 38 l-53 26 0 53 c0
46 3 53 19 53 11 0 23 -4 26 -10 3 -5 29 -10 56 -10 99 0 127 74 57 147 -17
18 -49 41 -71 51 l-40 19 34 24 c19 13 42 33 51 44 34 40 16 127 -37 175 -34
32 -102 35 -134 6 -12 -11 -23 -17 -25 -15 -2 2 -7 24 -11 49 -10 74 -25 108
-58 136 -28 24 -37 26 -88 20 l-57 -5 -40 52 c-45 58 -53 65 -136 126 -98 72
-215 139 -274 157 -32 9 -62 20 -69 25 -6 6 -58 11 -115 13 -77 2 -112 7 -138
21 -28 15 -60 18 -165 19 -71 1 -161 -1 -200 -5z"/>
</g>
</svg>
